<svg xmlns="http://www.w3.org/2000/svg" xmlns:xlink="http://www.w3.org/1999/xlink" width="500" zoomAndPan="magnify" viewBox="0 0 375 374.999991" height="500" preserveAspectRatio="xMidYMid meet" version="1.0"><defs><g/><clipPath id="20541c91f1"><path d="M 112.5 139 L 262.5 139 L 262.5 241.804688 L 112.5 241.804688 Z M 112.5 139 " clip-rule="nonzero"/></clipPath></defs><path fill="#f6f6f6" d="M 197.886719 151.609375 C 197.835938 151.613281 197.757812 151.621094 197.660156 151.617188 C 197.609375 151.617188 197.554688 151.617188 197.496094 151.613281 C 197.4375 151.613281 197.375 151.605469 197.304688 151.597656 C 197.234375 151.589844 197.164062 151.578125 197.085938 151.566406 C 197.011719 151.554688 196.933594 151.535156 196.847656 151.515625 C 196.683594 151.476562 196.507812 151.425781 196.324219 151.359375 C 196.140625 151.292969 195.953125 151.214844 195.761719 151.128906 C 195.570312 151.039062 195.378906 150.941406 195.183594 150.84375 C 194.992188 150.742188 194.800781 150.636719 194.605469 150.53125 C 194.414062 150.425781 194.222656 150.324219 194.03125 150.230469 C 193.839844 150.136719 193.652344 150.046875 193.464844 149.96875 C 193.28125 149.890625 193.097656 149.820312 192.921875 149.765625 C 192.75 149.710938 192.582031 149.667969 192.421875 149.632812 C 192.34375 149.617188 192.269531 149.609375 192.195312 149.59375 C 192.121094 149.585938 192.054688 149.578125 191.988281 149.570312 C 191.921875 149.566406 191.859375 149.566406 191.804688 149.5625 C 191.746094 149.558594 191.695312 149.5625 191.648438 149.5625 C 191.550781 149.5625 191.472656 149.570312 191.421875 149.574219 C 191.371094 149.578125 191.34375 149.578125 191.34375 149.578125 C 191.34375 149.578125 191.367188 149.570312 191.417969 149.550781 C 191.464844 149.535156 191.535156 149.503906 191.632812 149.480469 C 191.679688 149.472656 191.734375 149.457031 191.792969 149.445312 C 191.851562 149.433594 191.917969 149.425781 191.984375 149.417969 C 192.054688 149.410156 192.128906 149.40625 192.207031 149.398438 C 192.285156 149.398438 192.367188 149.398438 192.453125 149.402344 C 192.621094 149.414062 192.808594 149.429688 193 149.46875 C 193.191406 149.507812 193.390625 149.5625 193.59375 149.632812 C 193.796875 149.699219 194 149.78125 194.199219 149.871094 C 194.402344 149.964844 194.601562 150.066406 194.800781 150.171875 C 194.992188 150.277344 195.1875 150.386719 195.375 150.492188 C 195.5625 150.601562 195.746094 150.703125 195.925781 150.804688 C 196.105469 150.902344 196.277344 150.996094 196.445312 151.074219 C 196.609375 151.15625 196.769531 151.230469 196.921875 151.292969 C 196.996094 151.320312 197.070312 151.351562 197.136719 151.375 C 197.207031 151.402344 197.273438 151.421875 197.335938 151.445312 C 197.402344 151.464844 197.460938 151.480469 197.515625 151.496094 C 197.570312 151.515625 197.621094 151.527344 197.671875 151.535156 C 197.761719 151.5625 197.835938 151.574219 197.886719 151.585938 C 197.9375 151.597656 197.96875 151.601562 197.96875 151.601562 C 197.96875 151.601562 197.9375 151.605469 197.886719 151.609375 Z M 184.9375 149.574219 C 184.886719 149.570312 184.808594 149.5625 184.714844 149.5625 C 184.667969 149.5625 184.613281 149.558594 184.554688 149.5625 C 184.5 149.566406 184.4375 149.566406 184.371094 149.570312 C 184.308594 149.578125 184.238281 149.585938 184.164062 149.59375 C 184.089844 149.609375 184.015625 149.617188 183.9375 149.632812 C 183.78125 149.667969 183.613281 149.710938 183.4375 149.765625 C 183.261719 149.820312 183.078125 149.890625 182.894531 149.96875 C 182.707031 150.046875 182.519531 150.136719 182.328125 150.230469 C 182.140625 150.324219 181.945312 150.425781 181.757812 150.53125 C 181.5625 150.636719 181.371094 150.742188 181.175781 150.84375 C 180.980469 150.941406 180.789062 151.039062 180.597656 151.128906 C 180.40625 151.214844 180.21875 151.292969 180.035156 151.359375 C 179.855469 151.425781 179.675781 151.476562 179.511719 151.515625 C 179.429688 151.535156 179.347656 151.554688 179.273438 151.566406 C 179.195312 151.578125 179.125 151.589844 179.054688 151.597656 C 178.984375 151.605469 178.921875 151.613281 178.863281 151.613281 C 178.804688 151.617188 178.75 151.617188 178.699219 151.617188 C 178.601562 151.621094 178.523438 151.613281 178.472656 151.609375 C 178.421875 151.605469 178.394531 151.601562 178.394531 151.601562 C 178.394531 151.601562 178.421875 151.597656 178.472656 151.585938 C 178.523438 151.574219 178.597656 151.5625 178.691406 151.535156 C 178.738281 151.527344 178.789062 151.515625 178.84375 151.496094 C 178.898438 151.480469 178.960938 151.464844 179.023438 151.445312 C 179.085938 151.421875 179.152344 151.402344 179.222656 151.375 C 179.289062 151.351562 179.363281 151.320312 179.441406 151.292969 C 179.589844 151.230469 179.75 151.15625 179.914062 151.074219 C 180.082031 150.996094 180.253906 150.902344 180.433594 150.804688 C 180.613281 150.703125 180.796875 150.601562 180.984375 150.492188 C 181.171875 150.386719 181.367188 150.277344 181.558594 150.171875 C 181.757812 150.066406 181.957031 149.964844 182.160156 149.871094 C 182.359375 149.78125 182.5625 149.699219 182.765625 149.632812 C 182.96875 149.5625 183.167969 149.507812 183.359375 149.46875 C 183.550781 149.429688 183.738281 149.414062 183.910156 149.402344 C 183.992188 149.398438 184.078125 149.398438 184.15625 149.398438 C 184.230469 149.40625 184.304688 149.410156 184.375 149.417969 C 184.445312 149.425781 184.507812 149.433594 184.566406 149.445312 C 184.625 149.457031 184.679688 149.472656 184.726562 149.480469 C 184.824219 149.503906 184.894531 149.535156 184.941406 149.550781 C 184.992188 149.570312 185.019531 149.578125 185.019531 149.578125 C 185.019531 149.578125 184.992188 149.578125 184.9375 149.574219 Z M 211.429688 151.183594 C 211.355469 150.914062 211.234375 150.675781 211.089844 150.46875 C 210.800781 150.050781 210.421875 149.753906 210.019531 149.558594 C 209.617188 149.367188 209.179688 149.277344 208.765625 149.324219 C 208.664062 149.332031 208.5625 149.355469 208.464844 149.378906 C 208.367188 149.410156 208.273438 149.4375 208.1875 149.484375 C 208.097656 149.519531 208.019531 149.574219 207.9375 149.621094 C 207.902344 149.648438 207.863281 149.675781 207.828125 149.703125 C 207.789062 149.730469 207.757812 149.761719 207.726562 149.792969 C 207.691406 149.824219 207.660156 149.851562 207.632812 149.882812 C 207.601562 149.914062 207.574219 149.949219 207.546875 149.980469 L 207.488281 150.050781 L 207.472656 150.070312 L 207.464844 150.085938 L 207.433594 150.128906 L 207.402344 150.183594 C 207.351562 150.265625 207.320312 150.34375 207.296875 150.425781 C 207.285156 150.464844 207.273438 150.503906 207.265625 150.546875 C 207.257812 150.585938 207.253906 150.625 207.253906 150.664062 C 207.230469 150.984375 207.367188 151.273438 207.558594 151.441406 C 207.652344 151.527344 207.757812 151.578125 207.855469 151.621094 C 207.953125 151.660156 208.050781 151.6875 208.136719 151.703125 C 208.3125 151.738281 208.464844 151.742188 208.582031 151.75 C 208.703125 151.753906 208.796875 151.753906 208.859375 151.757812 C 208.921875 151.757812 208.953125 151.757812 208.953125 151.757812 C 208.953125 151.757812 208.921875 151.753906 208.859375 151.742188 C 208.800781 151.730469 208.707031 151.71875 208.589844 151.695312 C 208.472656 151.671875 208.328125 151.644531 208.167969 151.585938 C 208.011719 151.527344 207.832031 151.445312 207.707031 151.292969 C 207.582031 151.144531 207.523438 150.921875 207.570312 150.707031 L 207.59375 150.625 L 207.625 150.546875 C 207.648438 150.496094 207.683594 150.445312 207.710938 150.40625 L 207.742188 150.371094 L 207.78125 150.328125 L 207.851562 150.269531 L 207.925781 150.203125 L 208.007812 150.144531 C 208.035156 150.125 208.066406 150.105469 208.09375 150.089844 C 208.125 150.074219 208.15625 150.058594 208.183594 150.042969 C 208.25 150.019531 208.308594 149.988281 208.375 149.972656 C 208.441406 149.949219 208.511719 149.941406 208.578125 149.929688 C 208.652344 149.925781 208.71875 149.917969 208.792969 149.925781 C 209.078125 149.933594 209.378906 150.046875 209.644531 150.226562 C 209.910156 150.40625 210.140625 150.664062 210.28125 150.957031 C 210.425781 151.246094 210.457031 151.5625 210.371094 151.832031 C 210.363281 151.863281 210.34375 151.898438 210.332031 151.929688 L 210.3125 151.976562 L 210.289062 152.011719 L 210.273438 152.046875 L 210.171875 152.207031 L 210.179688 152.183594 L 210.175781 152.191406 L 210.15625 152.210938 C 210.058594 152.332031 209.9375 152.441406 209.796875 152.53125 C 209.507812 152.714844 209.140625 152.84375 208.738281 152.925781 C 208.332031 153.003906 207.890625 153.039062 207.4375 153.042969 C 206.980469 153.046875 206.511719 153.023438 206.03125 152.984375 C 205.792969 152.960938 205.550781 152.9375 205.300781 152.910156 C 205.265625 152.90625 205.246094 152.902344 205.214844 152.898438 L 205.136719 152.886719 C 205.085938 152.878906 205.03125 152.871094 204.976562 152.859375 C 204.871094 152.84375 204.761719 152.820312 204.65625 152.796875 C 204.222656 152.699219 203.777344 152.5625 203.335938 152.398438 C 202.445312 152.074219 201.550781 151.652344 200.652344 151.226562 C 199.753906 150.796875 198.851562 150.351562 197.933594 149.945312 C 197.011719 149.539062 196.078125 149.167969 195.105469 148.894531 C 194.136719 148.625 193.128906 148.449219 192.113281 148.464844 C 191.609375 148.46875 191.105469 148.523438 190.625 148.625 C 190.144531 148.722656 189.691406 148.867188 189.277344 149.039062 C 188.863281 149.214844 188.492188 149.417969 188.164062 149.621094 L 188.101562 149.664062 L 188.039062 149.621094 C 187.710938 149.417969 187.34375 149.214844 186.929688 149.039062 C 186.515625 148.867188 186.058594 148.722656 185.578125 148.625 C 185.097656 148.523438 184.59375 148.46875 184.089844 148.464844 C 183.074219 148.449219 182.066406 148.625 181.097656 148.894531 C 180.125 149.167969 179.191406 149.539062 178.269531 149.945312 C 177.351562 150.351562 176.449219 150.796875 175.550781 151.226562 C 174.652344 151.652344 173.757812 152.074219 172.871094 152.398438 C 172.425781 152.5625 171.984375 152.699219 171.550781 152.796875 C 171.441406 152.820312 171.332031 152.84375 171.226562 152.859375 C 171.171875 152.871094 171.121094 152.878906 171.066406 152.886719 L 170.988281 152.898438 C 170.960938 152.902344 170.9375 152.90625 170.902344 152.910156 C 170.652344 152.9375 170.414062 152.960938 170.171875 152.984375 C 169.691406 153.023438 169.222656 153.046875 168.769531 153.042969 C 168.3125 153.039062 167.871094 153.003906 167.46875 152.925781 C 167.0625 152.84375 166.695312 152.714844 166.410156 152.53125 C 166.269531 152.441406 166.148438 152.332031 166.046875 152.210938 L 166.027344 152.191406 L 166.023438 152.183594 L 166.035156 152.207031 L 166.023438 152.1875 L 165.976562 152.117188 L 165.933594 152.046875 L 165.914062 152.011719 L 165.890625 151.976562 L 165.871094 151.929688 C 165.859375 151.898438 165.84375 151.863281 165.835938 151.832031 C 165.746094 151.5625 165.78125 151.246094 165.921875 150.957031 C 166.0625 150.664062 166.296875 150.40625 166.558594 150.226562 C 166.824219 150.046875 167.125 149.933594 167.410156 149.925781 C 167.484375 149.917969 167.554688 149.925781 167.625 149.929688 C 167.691406 149.941406 167.761719 149.949219 167.828125 149.972656 C 167.894531 149.988281 167.957031 150.019531 168.019531 150.042969 C 168.050781 150.058594 168.082031 150.074219 168.109375 150.089844 C 168.140625 150.105469 168.167969 150.125 168.195312 150.144531 L 168.277344 150.203125 L 168.355469 150.269531 L 168.421875 150.328125 L 168.460938 150.371094 L 168.492188 150.40625 C 168.523438 150.445312 168.554688 150.496094 168.578125 150.546875 L 168.613281 150.625 L 168.632812 150.707031 C 168.683594 150.921875 168.621094 151.144531 168.496094 151.292969 C 168.375 151.445312 168.191406 151.527344 168.035156 151.585938 C 167.875 151.644531 167.730469 151.671875 167.613281 151.695312 C 167.496094 151.71875 167.40625 151.730469 167.34375 151.742188 C 167.28125 151.753906 167.25 151.757812 167.25 151.757812 C 167.25 151.757812 167.28125 151.757812 167.347656 151.757812 C 167.40625 151.753906 167.5 151.753906 167.621094 151.75 C 167.742188 151.742188 167.890625 151.738281 168.066406 151.703125 C 168.15625 151.6875 168.253906 151.660156 168.347656 151.621094 C 168.449219 151.578125 168.554688 151.527344 168.648438 151.441406 C 168.835938 151.273438 168.976562 150.984375 168.953125 150.664062 C 168.953125 150.625 168.945312 150.585938 168.9375 150.546875 C 168.933594 150.503906 168.921875 150.464844 168.910156 150.425781 C 168.886719 150.34375 168.851562 150.265625 168.804688 150.183594 L 168.773438 150.128906 L 168.742188 150.085938 L 168.734375 150.070312 L 168.714844 150.050781 L 168.65625 149.980469 C 168.628906 149.949219 168.605469 149.914062 168.574219 149.882812 C 168.542969 149.851562 168.511719 149.824219 168.480469 149.792969 C 168.449219 149.761719 168.414062 149.730469 168.375 149.703125 C 168.339844 149.675781 168.304688 149.648438 168.265625 149.621094 C 168.1875 149.574219 168.109375 149.519531 168.019531 149.484375 C 167.929688 149.4375 167.835938 149.410156 167.738281 149.378906 C 167.640625 149.355469 167.542969 149.332031 167.4375 149.324219 C 167.027344 149.277344 166.589844 149.367188 166.1875 149.558594 C 165.785156 149.753906 165.40625 150.050781 165.113281 150.46875 C 164.96875 150.675781 164.851562 150.914062 164.777344 151.183594 C 164.703125 151.453125 164.675781 151.75 164.71875 152.046875 C 164.722656 152.121094 164.746094 152.195312 164.761719 152.265625 C 164.769531 152.304688 164.777344 152.339844 164.789062 152.378906 L 164.832031 152.5 L 164.878906 152.617188 L 164.945312 152.773438 L 164.957031 152.789062 C 165.058594 153.003906 165.203125 153.199219 165.375 153.378906 C 165.4375 153.449219 165.503906 153.515625 165.570312 153.574219 C 166.484375 154.402344 167.660156 154.828125 168.917969 155.058594 C 169.347656 155.136719 169.789062 155.191406 170.230469 155.230469 C 173.03125 155.566406 179.761719 156.15625 185.066406 154.886719 C 185.78125 154.726562 186.453125 154.53125 187.0625 154.289062 C 187.433594 154.144531 187.78125 153.984375 188.101562 153.804688 C 188.421875 153.984375 188.769531 154.144531 189.144531 154.289062 C 189.753906 154.53125 190.425781 154.726562 191.140625 154.886719 C 196.441406 156.15625 203.171875 155.566406 205.972656 155.230469 C 206.417969 155.191406 206.855469 155.136719 207.285156 155.058594 L 207.289062 155.058594 C 208.542969 154.828125 209.71875 154.402344 210.636719 153.574219 C 210.703125 153.515625 210.765625 153.449219 210.828125 153.378906 C 211.003906 153.199219 211.144531 153.003906 211.25 152.789062 L 211.257812 152.773438 L 211.328125 152.617188 L 211.371094 152.5 L 211.414062 152.378906 C 211.429688 152.339844 211.433594 152.304688 211.445312 152.265625 C 211.460938 152.195312 211.480469 152.121094 211.484375 152.046875 C 211.527344 151.75 211.503906 151.453125 211.429688 151.183594 " fill-opacity="1" fill-rule="nonzero"/><path fill="#f6f6f6" d="M 211.144531 111.894531 C 210.914062 111.730469 210.566406 111.496094 210.136719 111.183594 C 210.03125 111.109375 209.917969 111.027344 209.796875 110.941406 C 209.679688 110.859375 209.554688 110.769531 209.417969 110.683594 C 209.148438 110.515625 208.859375 110.324219 208.550781 110.125 C 208.398438 110.023438 208.238281 109.921875 208.074219 109.816406 C 207.90625 109.710938 207.746094 109.597656 207.5625 109.496094 C 207.207031 109.289062 206.835938 109.070312 206.445312 108.84375 C 206.25 108.730469 206.054688 108.609375 205.847656 108.5 C 205.640625 108.390625 205.425781 108.285156 205.210938 108.171875 C 204.996094 108.0625 204.777344 107.949219 204.554688 107.832031 C 204.335938 107.714844 204.113281 107.59375 203.875 107.492188 C 203.40625 107.28125 202.925781 107.066406 202.433594 106.84375 C 201.929688 106.652344 201.417969 106.449219 200.898438 106.246094 C 200.769531 106.191406 200.632812 106.152344 200.5 106.109375 C 200.367188 106.066406 200.234375 106.023438 200.097656 105.980469 C 199.828125 105.894531 199.558594 105.804688 199.285156 105.714844 C 199.148438 105.667969 199.007812 105.632812 198.871094 105.597656 C 198.730469 105.5625 198.589844 105.523438 198.449219 105.488281 C 198.171875 105.414062 197.886719 105.339844 197.605469 105.265625 C 197.320312 105.203125 197.03125 105.148438 196.746094 105.089844 L 196.3125 105.003906 C 196.167969 104.976562 196.023438 104.9375 195.878906 104.921875 C 195.585938 104.882812 195.292969 104.839844 195 104.800781 L 194.558594 104.734375 C 194.414062 104.71875 194.265625 104.710938 194.117188 104.699219 L 193.230469 104.621094 C 193.085938 104.605469 192.9375 104.605469 192.789062 104.601562 L 191.90625 104.578125 C 191.757812 104.570312 191.613281 104.566406 191.464844 104.574219 C 191.171875 104.582031 190.878906 104.589844 190.585938 104.597656 C 190.296875 104.597656 190.007812 104.632812 189.71875 104.652344 C 189.429688 104.675781 189.140625 104.6875 188.859375 104.722656 C 188.289062 104.800781 187.726562 104.855469 187.179688 104.96875 C 186.082031 105.15625 185.035156 105.425781 184.054688 105.714844 C 183.808594 105.792969 183.566406 105.867188 183.328125 105.941406 C 183.09375 106.019531 182.863281 106.109375 182.636719 106.1875 C 182.175781 106.339844 181.746094 106.527344 181.328125 106.6875 C 180.917969 106.871094 180.519531 107.035156 180.148438 107.214844 C 179.964844 107.304688 179.78125 107.386719 179.609375 107.472656 C 179.433594 107.5625 179.265625 107.648438 179.101562 107.730469 C 178.453125 108.070312 177.890625 108.382812 177.441406 108.660156 C 176.992188 108.9375 176.640625 109.164062 176.410156 109.324219 C 176.171875 109.484375 176.050781 109.578125 176.050781 109.578125 C 176.050781 109.578125 176.078125 109.550781 176.132812 109.5 C 176.183594 109.445312 176.261719 109.371094 176.367188 109.273438 C 176.582031 109.085938 176.890625 108.800781 177.3125 108.476562 C 177.734375 108.144531 178.257812 107.761719 178.882812 107.355469 C 179.503906 106.945312 180.234375 106.523438 181.054688 106.097656 C 181.878906 105.6875 182.785156 105.265625 183.785156 104.910156 C 184.78125 104.554688 185.847656 104.210938 186.988281 103.988281 C 187.554688 103.851562 188.136719 103.773438 188.726562 103.675781 C 189.023438 103.628906 189.324219 103.605469 189.621094 103.570312 C 189.921875 103.539062 190.226562 103.503906 190.53125 103.496094 C 190.835938 103.484375 191.140625 103.46875 191.449219 103.457031 C 191.601562 103.449219 191.753906 103.449219 191.910156 103.453125 L 192.371094 103.460938 L 192.835938 103.46875 C 192.992188 103.472656 193.144531 103.472656 193.300781 103.492188 L 194.226562 103.566406 C 194.382812 103.578125 194.535156 103.585938 194.6875 103.605469 L 195.148438 103.675781 C 195.453125 103.71875 195.761719 103.765625 196.066406 103.808594 C 196.371094 103.855469 196.671875 103.929688 196.972656 103.992188 C 197.269531 104.058594 197.570312 104.121094 197.867188 104.191406 C 198.453125 104.359375 199.035156 104.511719 199.605469 104.699219 C 199.882812 104.800781 200.164062 104.898438 200.441406 104.996094 C 200.578125 105.046875 200.714844 105.097656 200.851562 105.144531 C 200.988281 105.195312 201.125 105.242188 201.257812 105.304688 C 201.789062 105.535156 202.3125 105.757812 202.816406 105.984375 C 203.308594 106.242188 203.792969 106.492188 204.261719 106.738281 C 204.496094 106.851562 204.71875 106.988281 204.941406 107.121094 C 205.160156 107.25 205.378906 107.378906 205.589844 107.511719 C 205.796875 107.640625 206.007812 107.765625 206.210938 107.890625 C 206.410156 108.019531 206.601562 108.160156 206.789062 108.289062 C 207.167969 108.550781 207.527344 108.800781 207.871094 109.039062 C 208.042969 109.15625 208.199219 109.292969 208.355469 109.414062 C 208.507812 109.535156 208.660156 109.65625 208.804688 109.769531 C 209.09375 110.003906 209.367188 110.21875 209.617188 110.421875 C 209.742188 110.519531 209.855469 110.625 209.964844 110.722656 C 210.074219 110.824219 210.179688 110.917969 210.277344 111.007812 C 210.675781 111.363281 210.976562 111.652344 211.1875 111.84375 C 211.394531 112.039062 211.507812 112.140625 211.507812 112.140625 C 211.507812 112.140625 211.378906 112.054688 211.144531 111.894531 Z M 201.707031 109.460938 C 201.554688 109.367188 201.328125 109.242188 201.03125 109.09375 C 200.734375 108.949219 200.367188 108.789062 199.941406 108.628906 C 199.511719 108.472656 199.015625 108.332031 198.46875 108.207031 C 197.921875 108.082031 197.324219 107.988281 196.683594 107.90625 C 196.042969 107.835938 195.363281 107.769531 194.664062 107.730469 C 194.3125 107.703125 193.957031 107.707031 193.597656 107.699219 C 193.234375 107.683594 192.871094 107.703125 192.5 107.707031 C 192.132812 107.703125 191.765625 107.738281 191.394531 107.757812 C 191.019531 107.769531 190.648438 107.816406 190.277344 107.851562 C 189.902344 107.878906 189.535156 107.941406 189.167969 107.988281 C 188.796875 108.03125 188.433594 108.109375 188.070312 108.171875 C 187.707031 108.234375 187.351562 108.320312 186.996094 108.394531 C 186.644531 108.464844 186.296875 108.554688 185.957031 108.644531 C 185.789062 108.691406 185.617188 108.734375 185.453125 108.78125 C 185.289062 108.832031 185.125 108.878906 184.960938 108.925781 C 184.632812 109.019531 184.316406 109.113281 184.011719 109.222656 C 183.707031 109.328125 183.40625 109.425781 183.121094 109.53125 C 182.835938 109.636719 182.558594 109.738281 182.292969 109.839844 C 182.027344 109.9375 181.78125 110.050781 181.542969 110.148438 C 181.304688 110.246094 181.070312 110.332031 180.863281 110.429688 C 180.449219 110.625 180.074219 110.773438 179.773438 110.921875 C 179.476562 111.070312 179.234375 111.179688 179.074219 111.257812 C 178.910156 111.332031 178.824219 111.371094 178.824219 111.371094 C 178.824219 111.371094 178.902344 111.316406 179.050781 111.214844 C 179.199219 111.113281 179.410156 110.960938 179.691406 110.777344 C 179.964844 110.589844 180.316406 110.382812 180.714844 110.140625 C 180.914062 110.015625 181.136719 109.902344 181.363281 109.773438 C 181.59375 109.652344 181.835938 109.515625 182.097656 109.390625 C 182.355469 109.265625 182.625 109.136719 182.90625 109.003906 C 183.1875 108.867188 183.488281 108.757812 183.789062 108.625 C 184.09375 108.496094 184.414062 108.378906 184.742188 108.261719 C 184.90625 108.199219 185.070312 108.140625 185.238281 108.082031 C 185.40625 108.03125 185.578125 107.976562 185.75 107.925781 C 186.097656 107.820312 186.449219 107.707031 186.8125 107.621094 C 187.171875 107.53125 187.535156 107.429688 187.910156 107.363281 C 188.285156 107.292969 188.660156 107.210938 189.039062 107.160156 C 189.421875 107.105469 189.800781 107.035156 190.1875 107.003906 C 190.570312 106.96875 190.957031 106.921875 191.34375 106.910156 C 191.726562 106.894531 192.109375 106.867188 192.492188 106.878906 C 192.871094 106.878906 193.25 106.871094 193.621094 106.902344 C 193.992188 106.929688 194.359375 106.9375 194.722656 106.980469 C 194.898438 107 195.078125 107.019531 195.253906 107.035156 C 195.34375 107.046875 195.433594 107.054688 195.519531 107.066406 C 195.605469 107.078125 195.691406 107.09375 195.777344 107.105469 C 196.121094 107.164062 196.457031 107.214844 196.785156 107.277344 C 197.101562 107.335938 197.429688 107.40625 197.730469 107.480469 C 198.03125 107.5625 198.324219 107.640625 198.601562 107.734375 C 199.152344 107.910156 199.648438 108.117188 200.070312 108.328125 C 200.492188 108.539062 200.839844 108.757812 201.117188 108.949219 C 201.253906 109.042969 201.378906 109.128906 201.480469 109.210938 C 201.582031 109.292969 201.667969 109.359375 201.738281 109.421875 C 201.871094 109.535156 201.945312 109.601562 201.945312 109.601562 C 201.945312 109.601562 201.863281 109.550781 201.707031 109.460938 Z M 169.445312 113.398438 C 169.382812 113.355469 169.285156 113.304688 169.164062 113.234375 C 169.039062 113.167969 168.890625 113.082031 168.714844 113 C 168.542969 112.910156 168.339844 112.828125 168.125 112.730469 C 168.015625 112.679688 167.898438 112.644531 167.78125 112.597656 C 167.660156 112.554688 167.539062 112.5 167.40625 112.460938 C 167.28125 112.421875 167.148438 112.378906 167.011719 112.335938 C 166.875 112.292969 166.734375 112.261719 166.59375 112.222656 C 166.3125 112.136719 166.007812 112.089844 165.707031 112.023438 C 165.558594 111.988281 165.402344 111.980469 165.246094 111.957031 C 165.09375 111.933594 164.9375 111.910156 164.78125 111.890625 C 164.625 111.878906 164.46875 111.867188 164.3125 111.855469 C 164.15625 111.847656 164.003906 111.824219 163.847656 111.828125 C 163.539062 111.828125 163.234375 111.8125 162.9375 111.820312 C 162.640625 111.835938 162.355469 111.847656 162.082031 111.859375 C 161.945312 111.863281 161.8125 111.886719 161.6875 111.898438 C 161.558594 111.910156 161.433594 111.921875 161.316406 111.933594 C 161.078125 111.957031 160.855469 111.976562 160.664062 112.011719 C 160.472656 112.042969 160.300781 112.066406 160.164062 112.085938 C 159.882812 112.125 159.71875 112.140625 159.71875 112.140625 C 159.71875 112.140625 159.867188 112.078125 160.132812 111.976562 C 160.265625 111.925781 160.425781 111.863281 160.617188 111.800781 C 160.710938 111.769531 160.808594 111.726562 160.917969 111.699219 C 161.023438 111.671875 161.136719 111.644531 161.257812 111.613281 C 161.492188 111.558594 161.75 111.484375 162.027344 111.4375 C 162.308594 111.398438 162.601562 111.351562 162.90625 111.316406 C 163.0625 111.292969 163.21875 111.296875 163.375 111.289062 C 163.535156 111.285156 163.695312 111.28125 163.859375 111.273438 C 164.183594 111.273438 164.511719 111.308594 164.84375 111.324219 C 165.007812 111.34375 165.167969 111.371094 165.332031 111.398438 L 165.574219 111.4375 C 165.65625 111.445312 165.738281 111.464844 165.816406 111.484375 C 166.132812 111.5625 166.445312 111.628906 166.734375 111.738281 C 166.882812 111.792969 167.027344 111.832031 167.164062 111.894531 C 167.300781 111.953125 167.4375 112.011719 167.566406 112.070312 C 167.699219 112.121094 167.820312 112.1875 167.9375 112.253906 C 168.050781 112.316406 168.167969 112.371094 168.273438 112.441406 C 168.375 112.503906 168.476562 112.570312 168.570312 112.628906 C 168.664062 112.691406 168.75 112.757812 168.832031 112.816406 C 168.992188 112.929688 169.121094 113.050781 169.230469 113.140625 C 169.441406 113.335938 169.542969 113.464844 169.542969 113.464844 C 169.542969 113.464844 169.507812 113.441406 169.445312 113.398438 Z M 218.335938 119.40625 C 218.335938 119.40625 218.0625 115.707031 214.699219 111.027344 C 213.910156 109.796875 212.777344 108.433594 211.15625 106.988281 L 211.152344 106.988281 C 208.628906 104.742188 204.921875 102.3125 199.480469 99.921875 C 181.664062 93.296875 171.105469 105.582031 168.320312 109.445312 C 164.484375 105.523438 159.296875 107.46875 159.296875 107.46875 C 163.335938 107.117188 165.558594 108.78125 166.722656 110.261719 L 166.691406 110.253906 C 166.691406 110.253906 161.78125 108.144531 157.871094 110.253906 L 157.871094 123.996094 L 160.285156 135.152344 L 160.285156 135.15625 C 161.203125 121.09375 167.757812 117.453125 174.074219 117.324219 C 168.636719 120.558594 169.058594 126.035156 169.058594 126.035156 C 173.34375 115.832031 182.402344 118.652344 182.402344 118.652344 C 184.851562 119.453125 186.441406 120.558594 186.441406 120.558594 C 186.441406 120.558594 200.136719 113.046875 208.238281 120.328125 C 213.339844 124.191406 213.90625 133.554688 213.96875 135.582031 L 213.976562 135.976562 L 216.464844 125.425781 C 216.464844 125.425781 216.476562 121.785156 216.144531 118.957031 L 218.335938 119.40625 " fill-opacity="1" fill-rule="nonzero"/><path fill="#f6f6f6" d="M 206.867188 157.125 C 199.9375 173.171875 188.070312 163.261719 188.070312 163.261719 C 175.4375 172.878906 167.902344 157.125 167.902344 157.125 C 166.0625 163.917969 167.566406 168.910156 169.363281 172.082031 C 170.769531 174.824219 172.6875 176.207031 172.6875 176.207031 C 171.996094 174.40625 174.1875 171.179688 174.1875 171.179688 C 172.0625 180.0625 188.828125 195.410156 188.828125 195.410156 C 188.828125 195.410156 186.160156 189.734375 194.550781 182.558594 C 202.941406 175.386719 202.1875 166.71875 202.1875 166.71875 C 202.1875 166.71875 204.328125 169.867188 204.683594 173.957031 C 204.683594 173.957031 211.074219 167.179688 206.867188 157.125 " fill-opacity="1" fill-rule="nonzero"/><path fill="#d34040" d="M 147.515625 223.3125 L 157.683594 223.3125 L 147.515625 212.347656 Z M 147.515625 223.3125 " fill-opacity="1" fill-rule="nonzero"/><path fill="#2b46bd" d="M 170.453125 223.3125 L 180.621094 223.3125 L 158.648438 199.617188 L 148.480469 199.617188 L 170.453125 223.3125 " fill-opacity="1" fill-rule="nonzero"/><path fill="#d34040" d="M 227.464844 199.617188 L 217.296875 199.617188 L 227.464844 210.582031 Z M 227.464844 199.617188 " fill-opacity="1" fill-rule="nonzero"/><path fill="#d34040" d="M 203.5625 223.3125 L 181.589844 199.617188 L 171.417969 199.617188 L 193.390625 223.3125 L 203.5625 223.3125 " fill-opacity="1" fill-rule="nonzero"/><path fill="#2b46bd" d="M 226.5 223.3125 L 204.527344 199.617188 L 194.359375 199.617188 L 216.332031 223.3125 L 226.5 223.3125 " fill-opacity="1" fill-rule="nonzero"/><path fill="#f6f6f6" d="M 127.015625 213.164062 C 127.175781 213.523438 127.363281 213.871094 127.566406 214.199219 C 127.628906 214.296875 127.65625 214.402344 127.65625 214.507812 C 127.65625 214.703125 127.558594 214.890625 127.382812 215.003906 C 127.109375 215.175781 126.746094 215.09375 126.578125 214.820312 C 126.34375 214.445312 126.128906 214.050781 125.949219 213.644531 C 125.816406 213.351562 125.945312 213.003906 126.242188 212.875 C 126.535156 212.742188 126.882812 212.871094 127.015625 213.164062 Z M 128.992188 215.898438 C 130.3125 217.085938 131.90625 217.714844 133.601562 217.714844 C 134.660156 217.714844 135.679688 217.46875 136.636719 216.984375 C 136.925781 216.835938 137.277344 216.949219 137.425781 217.238281 C 137.46875 217.320312 137.488281 217.410156 137.488281 217.5 C 137.488281 217.710938 137.371094 217.917969 137.167969 218.019531 C 136.046875 218.589844 134.84375 218.882812 133.601562 218.882812 C 131.640625 218.882812 129.722656 218.128906 128.207031 216.765625 C 127.96875 216.546875 127.949219 216.179688 128.164062 215.941406 C 128.382812 215.703125 128.75 215.683594 128.992188 215.898438 Z M 124.714844 211.464844 C 124.714844 216.355469 128.6875 220.320312 133.597656 220.320312 C 135.59375 220.320312 137.4375 219.664062 138.921875 218.550781 L 138.921875 204.378906 C 137.4375 203.265625 135.59375 202.609375 133.597656 202.609375 C 128.6875 202.609375 124.714844 206.574219 124.714844 211.464844 " fill-opacity="1" fill-rule="nonzero"/><path fill="#f6f6f6" d="M 146.238281 199.363281 L 146.238281 223.566406 C 146.238281 224.136719 145.773438 224.601562 145.199219 224.601562 C 144.628906 224.601562 144.164062 224.136719 144.164062 223.566406 L 144.164062 199.363281 C 144.164062 198.792969 144.628906 198.332031 145.199219 198.332031 C 145.773438 198.332031 146.238281 198.792969 146.238281 199.363281 " fill-opacity="1" fill-rule="nonzero"/><path fill="#f6f6f6" d="M 142.875 220.320312 L 140.148438 217.828125 L 140.148438 216.464844 Z M 139.558594 204.628906 L 139.558594 218.300781 L 143.457031 222.1875 L 143.457031 200.742188 L 139.558594 204.628906 " fill-opacity="1" fill-rule="nonzero"/><path fill="#f6f6f6" d="M 248.714844 212.875 C 249.011719 213.003906 249.140625 213.351562 249.011719 213.644531 C 248.828125 214.050781 248.613281 214.445312 248.382812 214.820312 C 248.210938 215.09375 247.847656 215.175781 247.574219 215.003906 C 247.398438 214.890625 247.300781 214.703125 247.300781 214.507812 C 247.300781 214.402344 247.328125 214.296875 247.390625 214.199219 C 247.597656 213.871094 247.78125 213.523438 247.941406 213.164062 C 248.074219 212.871094 248.421875 212.742188 248.714844 212.875 Z M 246.792969 215.941406 C 247.011719 216.179688 246.988281 216.546875 246.75 216.765625 C 245.234375 218.128906 243.320312 218.882812 241.359375 218.882812 C 240.113281 218.882812 238.910156 218.589844 237.789062 218.019531 C 237.585938 217.917969 237.46875 217.710938 237.46875 217.5 C 237.46875 217.410156 237.492188 217.320312 237.535156 217.238281 C 237.679688 216.949219 238.03125 216.835938 238.320312 216.984375 C 239.277344 217.46875 240.300781 217.714844 241.359375 217.714844 C 243.054688 217.714844 244.648438 217.085938 245.96875 215.898438 C 246.207031 215.683594 246.578125 215.703125 246.792969 215.941406 Z M 241.363281 202.609375 C 239.363281 202.609375 237.519531 203.265625 236.035156 204.378906 L 236.035156 218.550781 C 237.519531 219.664062 239.363281 220.320312 241.363281 220.320312 C 246.269531 220.320312 250.246094 216.355469 250.246094 211.464844 C 250.246094 206.574219 246.269531 202.609375 241.363281 202.609375 " fill-opacity="1" fill-rule="nonzero"/><path fill="#f6f6f6" d="M 228.722656 199.363281 L 228.722656 223.566406 C 228.722656 224.136719 229.183594 224.601562 229.757812 224.601562 C 230.332031 224.601562 230.792969 224.136719 230.792969 223.566406 L 230.792969 199.363281 C 230.792969 198.792969 230.332031 198.332031 229.757812 198.332031 C 229.183594 198.332031 228.722656 198.792969 228.722656 199.363281 " fill-opacity="1" fill-rule="nonzero"/><path fill="#f6f6f6" d="M 234.8125 216.464844 L 234.8125 217.828125 L 232.082031 220.320312 Z M 231.5 200.742188 L 231.5 222.1875 L 235.398438 218.300781 L 235.398438 204.628906 L 231.5 200.742188 " fill-opacity="1" fill-rule="nonzero"/><g clip-path="url(#20541c91f1)"><path fill="#f6f6f6" d="M 206.246094 239.769531 L 206.203125 239.703125 L 206.238281 239.746094 L 204.109375 236.433594 L 196.421875 224.601562 L 195.269531 224.601562 L 199.984375 231.605469 L 194.625 224.601562 L 192.324219 224.601562 C 200.292969 233.953125 206.621094 241.375 206.621094 241.375 C 206.824219 241.613281 207.15625 241.433594 207.160156 241.183594 L 206.277344 239.808594 Z M 174.984375 231.605469 L 179.699219 224.601562 L 178.546875 224.601562 L 170.859375 236.433594 L 168.730469 239.746094 L 168.761719 239.703125 L 168.71875 239.769531 L 168.6875 239.808594 L 167.808594 241.183594 C 167.8125 241.433594 168.144531 241.613281 168.347656 241.375 C 168.347656 241.375 174.675781 233.953125 182.644531 224.601562 L 180.34375 224.601562 Z M 168.070312 189.371094 C 166.941406 190.105469 165.433594 189.785156 164.699219 188.660156 C 163.964844 187.53125 164.285156 186.023438 165.414062 185.289062 C 166.539062 184.554688 168.050781 184.875 168.78125 186.003906 C 169.515625 187.128906 169.199219 188.636719 168.070312 189.371094 Z M 149.179688 155.882812 C 146.28125 157.765625 142.015625 156.359375 139.664062 152.75 C 137.3125 149.132812 137.753906 144.664062 140.652344 142.777344 C 143.546875 140.894531 147.816406 142.296875 150.167969 145.910156 C 152.519531 149.523438 152.078125 153.996094 149.179688 155.882812 Z M 174.527344 198.332031 L 170.109375 192.554688 L 171.335938 189.042969 L 177.585938 198.332031 L 179.359375 198.332031 L 173.019531 188.570312 L 173.015625 188.5625 L 171.933594 186.898438 L 171.941406 186.851562 L 158.523438 166.191406 C 158.523438 166.1875 156.546875 163.144531 154.726562 160.355469 C 153.46875 158.421875 153.136719 156.019531 153.851562 153.828125 C 154.785156 150.964844 154.351562 147.464844 152.394531 144.460938 C 149.246094 139.621094 143.328125 137.867188 139.203125 140.550781 C 135.246094 143.125 134.359375 148.855469 137.066406 153.589844 L 136.578125 154.019531 C 136.257812 154.304688 136.222656 154.792969 136.507812 155.113281 L 138.585938 157.492188 C 138.867188 157.8125 139.359375 157.847656 139.679688 157.566406 L 140.152344 157.152344 C 141.769531 158.402344 143.632812 159.152344 145.484375 159.324219 C 148.042969 159.5625 150.359375 160.933594 151.640625 163.160156 C 152.574219 164.785156 153.378906 166.21875 153.503906 166.453125 C 155.640625 170.515625 157.480469 174.753906 158.792969 179.15625 C 159.25 180.691406 159.644531 182.242188 159.949219 183.8125 C 160.066406 184.4375 160.171875 185.0625 160.261719 185.6875 C 160.304688 185.992188 160.253906 186.972656 160.445312 187.195312 C 160.445312 187.195312 164.371094 191.804688 169.933594 198.332031 Z M 165.371094 187.957031 L 165.941406 188.609375 L 168.113281 186.707031 L 167.542969 186.054688 Z M 210.269531 188.660156 C 209.535156 189.785156 208.027344 190.105469 206.898438 189.371094 C 205.769531 188.636719 205.453125 187.128906 206.183594 186.003906 C 206.917969 184.875 208.425781 184.554688 209.554688 185.289062 C 210.683594 186.023438 211 187.53125 210.269531 188.660156 Z M 224.800781 145.910156 C 227.152344 142.296875 231.421875 140.894531 234.316406 142.777344 C 237.210938 144.664062 237.65625 149.132812 235.304688 152.75 C 232.953125 156.359375 228.683594 157.765625 225.789062 155.882812 C 222.890625 153.996094 222.449219 149.523438 224.800781 145.910156 Z M 221.464844 166.453125 C 221.585938 166.21875 222.390625 164.785156 223.328125 163.160156 C 224.609375 160.933594 226.925781 159.5625 229.484375 159.324219 C 231.335938 159.152344 233.195312 158.402344 234.816406 157.152344 L 235.285156 157.566406 C 235.609375 157.847656 236.097656 157.8125 236.378906 157.492188 L 238.460938 155.113281 C 238.746094 154.792969 238.710938 154.304688 238.390625 154.019531 L 237.898438 153.589844 C 240.609375 148.855469 239.71875 143.125 235.765625 140.550781 C 231.640625 137.867188 225.722656 139.621094 222.574219 144.460938 C 220.617188 147.464844 220.179688 150.964844 221.117188 153.828125 C 221.835938 156.019531 221.5 158.421875 220.238281 160.355469 C 218.425781 163.144531 216.445312 166.1875 216.445312 166.191406 L 203.027344 186.851562 L 203.03125 186.898438 L 201.953125 188.5625 L 201.945312 188.570312 L 195.609375 198.332031 L 197.382812 198.332031 L 203.632812 189.042969 L 204.855469 192.554688 L 200.441406 198.332031 L 205.035156 198.332031 C 210.597656 191.804688 214.523438 187.195312 214.523438 187.195312 C 214.714844 186.972656 214.660156 185.992188 214.703125 185.6875 C 214.792969 185.0625 214.898438 184.4375 215.019531 183.8125 C 215.324219 182.242188 215.714844 180.691406 216.171875 179.15625 C 217.488281 174.753906 219.328125 170.515625 221.464844 166.453125 Z M 248.441406 167.199219 C 244.992188 169.785156 240.503906 169.636719 238.429688 166.875 C 236.355469 164.109375 237.476562 159.753906 240.925781 157.167969 C 244.375 154.585938 248.867188 154.730469 250.9375 157.496094 C 253.011719 160.257812 251.894531 164.613281 248.441406 167.199219 Z M 261.761719 154.824219 C 261.421875 154.652344 261.085938 154.507812 260.757812 154.390625 C 258.867188 153.734375 257.171875 154.011719 255.777344 154.671875 C 255.730469 154.695312 255.6875 154.710938 255.644531 154.734375 C 255.609375 154.753906 255.574219 154.769531 255.542969 154.785156 C 253.390625 155.84375 252.105469 154.503906 250.269531 153.59375 C 249.175781 153.054688 247.96875 152.761719 246.753906 152.695312 C 244.097656 152.546875 241.445312 153.457031 239.332031 155.042969 C 236.445312 157.210938 234.832031 160.371094 234.75 163.402344 C 234.675781 165.972656 233.46875 168.378906 231.332031 169.808594 C 229.835938 170.808594 228.507812 171.675781 228.203125 171.863281 L 228.167969 171.886719 C 224.824219 173.9375 221.339844 175.78125 217.710938 177.277344 C 217.464844 177.988281 217.234375 178.699219 217.023438 179.410156 C 216.550781 180.984375 216.171875 182.523438 215.890625 183.980469 C 215.769531 184.609375 215.664062 185.226562 215.582031 185.8125 C 215.570312 185.886719 215.570312 186.003906 215.566406 186.136719 C 215.5625 186.371094 215.550781 186.582031 215.535156 186.773438 L 228.757812 176.878906 C 228.761719 176.878906 229.972656 175.972656 231.546875 174.792969 C 232.414062 174.144531 233.386719 173.414062 234.335938 172.703125 C 236.179688 171.320312 238.554688 170.828125 240.789062 171.398438 C 243.710938 172.140625 247.171875 171.476562 250.039062 169.324219 C 253.066406 167.054688 254.6875 163.691406 254.621094 160.53125 C 254.546875 157.234375 257.925781 154.941406 260.875 156.417969 C 260.910156 156.433594 260.945312 156.453125 260.976562 156.46875 C 261.46875 156.722656 262.078125 156.492188 262.261719 155.949219 C 262.414062 155.511719 262.175781 155.035156 261.761719 154.824219 Z M 206.855469 186.707031 L 209.027344 188.609375 L 209.597656 187.957031 L 207.425781 186.054688 Z M 136.539062 166.875 C 134.464844 169.636719 129.972656 169.785156 126.523438 167.199219 C 123.074219 164.613281 121.957031 160.257812 124.027344 157.496094 C 126.101562 154.730469 130.59375 154.585938 134.042969 157.167969 C 137.492188 159.753906 138.613281 164.109375 136.539062 166.875 Z M 159.386719 185.8125 C 159.304688 185.226562 159.199219 184.609375 159.078125 183.980469 C 158.796875 182.523438 158.414062 180.984375 157.945312 179.410156 C 157.734375 178.699219 157.5 177.988281 157.257812 177.277344 C 153.628906 175.78125 150.140625 173.9375 146.796875 171.886719 L 146.761719 171.863281 C 146.460938 171.675781 145.136719 170.808594 143.636719 169.808594 C 141.496094 168.378906 140.289062 165.972656 140.21875 163.402344 C 140.136719 160.371094 138.523438 157.210938 135.636719 155.042969 C 133.519531 153.457031 130.871094 152.546875 128.214844 152.695312 C 127 152.761719 125.789062 153.054688 124.695312 153.59375 C 122.863281 154.503906 121.574219 155.84375 119.425781 154.785156 C 119.390625 154.769531 119.359375 154.753906 119.324219 154.734375 C 119.277344 154.710938 119.234375 154.695312 119.1875 154.671875 C 117.796875 154.011719 116.101562 153.734375 114.210938 154.390625 C 113.882812 154.507812 113.546875 154.652344 113.203125 154.824219 C 112.792969 155.035156 112.554688 155.511719 112.703125 155.949219 C 112.890625 156.492188 113.496094 156.722656 113.988281 156.46875 C 114.023438 156.453125 114.058594 156.433594 114.09375 156.417969 C 117.042969 154.941406 120.421875 157.234375 120.347656 160.53125 C 120.28125 163.691406 121.902344 167.054688 124.929688 169.324219 C 127.796875 171.476562 131.257812 172.140625 134.179688 171.398438 C 136.414062 170.828125 138.785156 171.320312 140.632812 172.703125 C 141.578125 173.414062 142.554688 174.144531 143.417969 174.792969 C 144.992188 175.972656 146.207031 176.878906 146.207031 176.878906 L 159.433594 186.773438 C 159.414062 186.582031 159.40625 186.371094 159.402344 186.136719 C 159.398438 186.003906 159.394531 185.886719 159.386719 185.8125 " fill-opacity="1" fill-rule="nonzero"/></g><g fill="#f6f6f6" fill-opacity="1"><g transform="translate(144.299988, 277.845011)"><g><path d="M 7.375 -7.71875 L 7.375 0 L 5.484375 0 L 5.484375 -3.171875 L 2.5625 -3.171875 L 2.5625 0 L 0.6875 0 L 0.6875 -7.71875 L 2.5625 -7.71875 L 2.5625 -4.703125 L 5.484375 -4.703125 L 5.484375 -7.71875 Z M 7.375 -7.71875 "/></g></g></g><g fill="#f6f6f6" fill-opacity="1"><g transform="translate(156.372289, 277.845011)"><g><path d="M 5.484375 -1.359375 L 2.609375 -1.359375 L 2.140625 0 L 0.171875 0 L 2.96875 -7.71875 L 5.140625 -7.71875 L 7.9375 0 L 5.953125 0 Z M 5 -2.8125 L 4.046875 -5.640625 L 3.109375 -2.8125 Z M 5 -2.8125 "/></g></g></g><g fill="#f6f6f6" fill-opacity="1"><g transform="translate(168.510543, 277.845011)"><g><path d="M 9.421875 -7.71875 L 9.421875 0 L 7.546875 0 L 7.546875 -4.625 L 5.8125 0 L 4.296875 0 L 2.5625 -4.640625 L 2.5625 0 L 0.6875 0 L 0.6875 -7.71875 L 2.90625 -7.71875 L 5.078125 -2.375 L 7.21875 -7.71875 Z M 9.421875 -7.71875 "/></g></g></g><g fill="#f6f6f6" fill-opacity="1"><g transform="translate(182.638385, 277.845011)"><g><path d="M 2.5625 -7.71875 L 2.5625 0 L 0.6875 0 L 0.6875 -7.71875 Z M 2.5625 -7.71875 "/></g></g></g><g fill="#f6f6f6" fill-opacity="1"><g transform="translate(189.918075, 277.845011)"><g><path d="M 2.5625 -1.453125 L 5.03125 -1.453125 L 5.03125 0 L 0.6875 0 L 0.6875 -7.71875 L 2.5625 -7.71875 Z M 2.5625 -1.453125 "/></g></g></g><g fill="#f6f6f6" fill-opacity="1"><g transform="translate(199.198351, 277.845011)"><g><path d="M 6.234375 -7.71875 L 6.234375 -6.21875 L 4.1875 -6.21875 L 4.1875 0 L 2.3125 0 L 2.3125 -6.21875 L 0.265625 -6.21875 L 0.265625 -7.71875 Z M 6.234375 -7.71875 "/></g></g></g><g fill="#f6f6f6" fill-opacity="1"><g transform="translate(209.731744, 277.845011)"><g><path d="M 4.328125 0.078125 C 3.609375 0.078125 2.945312 -0.0859375 2.34375 -0.421875 C 1.738281 -0.765625 1.253906 -1.238281 0.890625 -1.84375 C 0.535156 -2.445312 0.359375 -3.128906 0.359375 -3.890625 C 0.359375 -4.640625 0.535156 -5.3125 0.890625 -5.90625 C 1.253906 -6.507812 1.738281 -6.976562 2.34375 -7.3125 C 2.945312 -7.65625 3.609375 -7.828125 4.328125 -7.828125 C 5.054688 -7.828125 5.722656 -7.65625 6.328125 -7.3125 C 6.929688 -6.976562 7.40625 -6.507812 7.75 -5.90625 C 8.101562 -5.3125 8.28125 -4.640625 8.28125 -3.890625 C 8.28125 -3.128906 8.101562 -2.445312 7.75 -1.84375 C 7.40625 -1.238281 6.929688 -0.765625 6.328125 -0.421875 C 5.722656 -0.0859375 5.054688 0.078125 4.328125 0.078125 Z M 4.328125 -1.640625 C 4.953125 -1.640625 5.445312 -1.84375 5.8125 -2.25 C 6.1875 -2.664062 6.375 -3.210938 6.375 -3.890625 C 6.375 -4.566406 6.1875 -5.109375 5.8125 -5.515625 C 5.445312 -5.921875 4.953125 -6.125 4.328125 -6.125 C 3.710938 -6.125 3.21875 -5.921875 2.84375 -5.515625 C 2.46875 -5.117188 2.28125 -4.578125 2.28125 -3.890625 C 2.28125 -3.203125 2.46875 -2.65625 2.84375 -2.25 C 3.21875 -1.84375 3.710938 -1.640625 4.328125 -1.640625 Z M 4.328125 -1.640625 "/></g></g></g><g fill="#f6f6f6" fill-opacity="1"><g transform="translate(222.408616, 277.845011)"><g><path d="M 7.59375 0 L 5.703125 0 L 2.5625 -4.765625 L 2.5625 0 L 0.6875 0 L 0.6875 -7.71875 L 2.5625 -7.71875 L 5.703125 -2.9375 L 5.703125 -7.71875 L 7.59375 -7.71875 Z M 7.59375 0 "/></g></g></g><g fill="#d34040" fill-opacity="1"><g transform="translate(69.634102, 258.958723)"><g><path d="M 21.613281 -15.929688 L 21.613281 -17.5 C 21.613281 -19.316406 21.25 -20.71875 20.523438 -21.640625 C 19.792969 -22.59375 18.5625 -23.070312 16.855469 -23.070312 L 4.480469 -23.070312 L 4.480469 -23.042969 C 3.667969 -22.984375 2.96875 -22.539062 2.546875 -21.867188 C 2.4375 -21.640625 2.324219 -21.390625 2.269531 -21.167969 L 2.238281 -2.042969 C 2.296875 -1.734375 2.40625 -1.429688 2.546875 -1.175781 C 2.996094 -0.421875 3.808594 0.0273438 4.675781 0.0273438 L 17.273438 0.0273438 C 18.113281 0.0273438 18.8125 -0.113281 19.375 -0.390625 C 19.960938 -0.671875 20.4375 -1.0625 20.773438 -1.597656 C 21.136719 -2.101562 21.363281 -2.714844 21.53125 -3.445312 C 21.671875 -4.144531 21.753906 -4.957031 21.753906 -5.824219 L 21.753906 -7.699219 C 21.753906 -9.546875 21.222656 -10.945312 20.214844 -11.871094 C 21.167969 -12.824219 21.613281 -14.195312 21.613281 -15.929688 Z M 6.355469 -4.285156 L 6.355469 -18.757812 C 6.355469 -18.871094 6.382812 -18.925781 6.410156 -18.925781 L 16.125 -18.925781 C 16.660156 -18.925781 17.050781 -18.785156 17.273438 -18.535156 C 17.5 -18.28125 17.609375 -17.835938 17.609375 -17.246094 L 17.609375 -15.316406 C 17.609375 -14.78125 17.5 -14.363281 17.246094 -14.082031 C 17.023438 -13.832031 16.546875 -13.691406 15.820312 -13.691406 L 10.386719 -13.691406 C 9.882812 -13.691406 9.464844 -13.269531 9.464844 -12.765625 L 9.464844 -10.472656 C 9.464844 -9.9375 9.882812 -9.546875 10.386719 -9.546875 L 15.820312 -9.546875 C 16.546875 -9.546875 17.023438 -9.378906 17.273438 -9.097656 C 17.5 -8.820312 17.636719 -8.371094 17.636719 -7.753906 L 17.636719 -5.851562 C 17.636719 -5.207031 17.527344 -4.757812 17.300781 -4.507812 C 17.078125 -4.253906 16.6875 -4.144531 16.125 -4.144531 L 6.382812 -4.144531 C 6.382812 -4.144531 6.355469 -4.171875 6.355469 -4.285156 Z M 6.355469 -4.285156 "/></g></g></g><g fill="#d34040" fill-opacity="1"><g transform="translate(96.706639, 258.958723)"><g><path d="M 17.246094 -20.464844 C 17.191406 -20.605469 17.132812 -20.773438 17.078125 -20.886719 C 16.628906 -22.34375 15.285156 -23.378906 13.746094 -23.378906 C 13.046875 -23.378906 12.375 -23.183594 11.816406 -22.789062 C 11.648438 -22.707031 11.507812 -22.59375 11.394531 -22.511719 C 10.976562 -22.144531 10.554688 -21.472656 10.164062 -20.464844 L 2.351562 -1.0625 C 2.269531 -0.8125 2.238281 -0.558594 2.296875 -0.390625 C 2.324219 -0.222656 2.464844 0.0273438 2.910156 0.0273438 L 5.992188 0.0273438 C 6.355469 0.0273438 6.636719 -0.195312 6.777344 -0.558594 L 8.371094 -4.5625 L 14.503906 -4.5625 C 14.8125 -4.5625 15.089844 -4.703125 15.230469 -4.957031 C 15.398438 -5.179688 15.425781 -5.488281 15.34375 -5.765625 L 14.335938 -8.257812 C 14.195312 -8.59375 13.886719 -8.820312 13.523438 -8.820312 L 10.050781 -8.820312 L 13.636719 -17.890625 C 13.664062 -17.945312 13.691406 -17.972656 13.691406 -17.972656 L 13.804688 -17.972656 C 13.804688 -17.972656 13.804688 -17.972656 13.832031 -17.917969 L 20.773438 -0.589844 C 20.914062 -0.195312 21.195312 0.0273438 21.585938 0.0273438 L 24.582031 0.0273438 C 25.03125 0.0273438 25.140625 -0.253906 25.199219 -0.390625 C 25.253906 -0.558594 25.226562 -0.8125 25.113281 -1.0625 Z M 17.246094 -20.464844 "/></g></g></g><g fill="#d34040" fill-opacity="1"><g transform="translate(127.278699, 258.958723)"><g><path d="M 21.335938 -16.378906 C 21.335938 -16.351562 21.335938 -16.324219 21.335938 -16.292969 C 21.335938 -16.265625 21.335938 -16.238281 21.335938 -16.210938 Z M 21.867188 -1.203125 L 16.964844 -9.601562 C 18.339844 -9.769531 19.402344 -10.359375 20.101562 -11.3125 C 20.886719 -12.457031 21.304688 -14.109375 21.335938 -16.292969 C 21.304688 -18.476562 20.886719 -20.128906 20.101562 -21.277344 C 19.261719 -22.480469 17.863281 -23.070312 15.957031 -23.070312 L 3.050781 -23.070312 C 2.800781 -23.070312 2.238281 -22.984375 2.238281 -22.089844 L 2.238281 -19.878906 C 2.238281 -19.011719 2.800781 -18.925781 3.050781 -18.925781 L 15.230469 -18.925781 C 15.957031 -18.925781 16.433594 -18.730469 16.714844 -18.308594 C 17.023438 -17.890625 17.164062 -17.21875 17.164062 -16.292969 C 17.164062 -15.371094 17.023438 -14.699219 16.714844 -14.277344 C 16.433594 -13.859375 15.957031 -13.664062 15.230469 -13.664062 L 3.050781 -13.664062 C 2.800781 -13.664062 2.238281 -13.578125 2.238281 -12.710938 L 2.238281 -0.953125 C 2.238281 -0.0859375 2.800781 0.0273438 3.050781 0.0273438 L 5.597656 0.0273438 C 5.851562 0.0273438 6.382812 -0.0859375 6.382812 -0.953125 L 6.382812 -9.519531 L 12.289062 -9.519531 L 17.359375 -0.53125 C 17.46875 -0.363281 17.554688 -0.222656 17.667969 -0.140625 C 17.804688 -0.0273438 18.003906 0.0273438 18.253906 0.0273438 L 21.335938 0.0273438 C 21.671875 0.0273438 21.921875 -0.195312 21.976562 -0.53125 C 22.007812 -0.8125 21.976562 -1.035156 21.867188 -1.203125 Z M 21.867188 -1.203125 "/></g></g></g><g fill="#d34040" fill-opacity="1"><g transform="translate(154.6032, 258.958723)"><g><path d="M 21.613281 -15.929688 L 21.613281 -17.5 C 21.613281 -19.316406 21.25 -20.71875 20.523438 -21.640625 C 19.792969 -22.59375 18.5625 -23.070312 16.855469 -23.070312 L 4.480469 -23.070312 L 4.480469 -23.042969 C 3.667969 -22.984375 2.96875 -22.539062 2.546875 -21.867188 C 2.4375 -21.640625 2.324219 -21.390625 2.269531 -21.167969 L 2.238281 -2.042969 C 2.296875 -1.734375 2.40625 -1.429688 2.546875 -1.175781 C 2.996094 -0.421875 3.808594 0.0273438 4.675781 0.0273438 L 17.273438 0.0273438 C 18.113281 0.0273438 18.8125 -0.113281 19.375 -0.390625 C 19.960938 -0.671875 20.4375 -1.0625 20.773438 -1.597656 C 21.136719 -2.101562 21.363281 -2.714844 21.53125 -3.445312 C 21.671875 -4.144531 21.753906 -4.957031 21.753906 -5.824219 L 21.753906 -7.699219 C 21.753906 -9.546875 21.222656 -10.945312 20.214844 -11.871094 C 21.167969 -12.824219 21.613281 -14.195312 21.613281 -15.929688 Z M 6.355469 -4.285156 L 6.355469 -18.757812 C 6.355469 -18.871094 6.382812 -18.925781 6.410156 -18.925781 L 16.125 -18.925781 C 16.660156 -18.925781 17.050781 -18.785156 17.273438 -18.535156 C 17.5 -18.28125 17.609375 -17.835938 17.609375 -17.246094 L 17.609375 -15.316406 C 17.609375 -14.78125 17.5 -14.363281 17.246094 -14.082031 C 17.023438 -13.832031 16.546875 -13.691406 15.820312 -13.691406 L 10.386719 -13.691406 C 9.882812 -13.691406 9.464844 -13.269531 9.464844 -12.765625 L 9.464844 -10.472656 C 9.464844 -9.9375 9.882812 -9.546875 10.386719 -9.546875 L 15.820312 -9.546875 C 16.546875 -9.546875 17.023438 -9.378906 17.273438 -9.097656 C 17.5 -8.820312 17.636719 -8.371094 17.636719 -7.753906 L 17.636719 -5.851562 C 17.636719 -5.207031 17.527344 -4.757812 17.300781 -4.507812 C 17.078125 -4.253906 16.6875 -4.144531 16.125 -4.144531 L 6.382812 -4.144531 C 6.382812 -4.144531 6.355469 -4.171875 6.355469 -4.285156 Z M 6.355469 -4.285156 "/></g></g></g><g fill="#d34040" fill-opacity="1"><g transform="translate(181.675737, 258.958723)"><g><path d="M 19.066406 -5.011719 L 9.210938 -5.011719 C 8.625 -5.011719 8.148438 -5.09375 7.753906 -5.207031 C 7.390625 -5.347656 7.140625 -5.542969 6.914062 -5.824219 C 6.691406 -6.132812 6.523438 -6.550781 6.4375 -7.082031 C 6.410156 -7.222656 6.410156 -7.417969 6.382812 -7.558594 C 6.382812 -7.558594 6.410156 -9.574219 6.4375 -9.574219 L 18.953125 -9.574219 C 19.179688 -9.574219 19.738281 -9.6875 19.738281 -10.554688 L 19.738281 -12.765625 C 19.738281 -13.636719 19.179688 -13.71875 18.953125 -13.71875 L 4.507812 -13.691406 C 3.695312 -13.636719 2.996094 -13.214844 2.605469 -12.515625 C 2.464844 -12.289062 2.351562 -12.066406 2.296875 -11.816406 L 2.238281 -8.289062 L 2.238281 -8.148438 C 2.269531 -6.832031 2.40625 -5.710938 2.605469 -4.789062 C 2.855469 -3.667969 3.277344 -2.742188 3.808594 -2.042969 C 4.367188 -1.316406 5.09375 -0.8125 5.992188 -0.503906 C 6.859375 -0.167969 7.894531 -0.0273438 9.128906 -0.0273438 L 19.066406 -0.0273438 C 19.316406 -0.0273438 19.878906 -0.113281 19.878906 -0.980469 L 19.878906 -4.058594 C 19.878906 -4.925781 19.316406 -5.011719 19.066406 -5.011719 Z M 19.09375 -23.125 L 2.996094 -23.125 C 2.773438 -23.125 2.238281 -23.015625 2.238281 -22.117188 L 2.238281 -19.933594 C 2.238281 -19.066406 2.773438 -18.980469 2.996094 -18.980469 L 19.09375 -18.953125 C 19.316406 -18.953125 19.878906 -19.066406 19.878906 -19.933594 L 19.878906 -22.144531 C 19.878906 -23.015625 19.316406 -23.125 19.09375 -23.125 Z M 19.09375 -23.125 "/></g></g></g><g fill="#d34040" fill-opacity="1"><g transform="translate(206.872536, 258.958723)"><g><path d="M 17.246094 -20.464844 C 17.191406 -20.605469 17.132812 -20.773438 17.078125 -20.886719 C 16.628906 -22.34375 15.285156 -23.378906 13.746094 -23.378906 C 13.046875 -23.378906 12.375 -23.183594 11.816406 -22.789062 C 11.648438 -22.707031 11.507812 -22.59375 11.394531 -22.511719 C 10.976562 -22.144531 10.554688 -21.472656 10.164062 -20.464844 L 2.351562 -1.0625 C 2.269531 -0.8125 2.238281 -0.558594 2.296875 -0.390625 C 2.324219 -0.222656 2.464844 0.0273438 2.910156 0.0273438 L 5.992188 0.0273438 C 6.355469 0.0273438 6.636719 -0.195312 6.777344 -0.558594 L 8.371094 -4.5625 L 14.503906 -4.5625 C 14.8125 -4.5625 15.089844 -4.703125 15.230469 -4.957031 C 15.398438 -5.179688 15.425781 -5.488281 15.34375 -5.765625 L 14.335938 -8.257812 C 14.195312 -8.59375 13.886719 -8.820312 13.523438 -8.820312 L 10.050781 -8.820312 L 13.636719 -17.890625 C 13.664062 -17.945312 13.691406 -17.972656 13.691406 -17.972656 L 13.804688 -17.972656 C 13.804688 -17.972656 13.804688 -17.972656 13.832031 -17.917969 L 20.773438 -0.589844 C 20.914062 -0.195312 21.195312 0.0273438 21.585938 0.0273438 L 24.582031 0.0273438 C 25.03125 0.0273438 25.140625 -0.253906 25.199219 -0.390625 C 25.253906 -0.558594 25.226562 -0.8125 25.113281 -1.0625 Z M 17.246094 -20.464844 "/></g></g></g><g fill="#d34040" fill-opacity="1"><g transform="translate(237.444601, 258.958723)"><g><path d="M 21.335938 -16.378906 C 21.335938 -16.351562 21.335938 -16.324219 21.335938 -16.292969 C 21.335938 -16.265625 21.335938 -16.238281 21.335938 -16.210938 Z M 21.867188 -1.203125 L 16.964844 -9.601562 C 18.339844 -9.769531 19.402344 -10.359375 20.101562 -11.3125 C 20.886719 -12.457031 21.304688 -14.109375 21.335938 -16.292969 C 21.304688 -18.476562 20.886719 -20.128906 20.101562 -21.277344 C 19.261719 -22.480469 17.863281 -23.070312 15.957031 -23.070312 L 3.050781 -23.070312 C 2.800781 -23.070312 2.238281 -22.984375 2.238281 -22.089844 L 2.238281 -19.878906 C 2.238281 -19.011719 2.800781 -18.925781 3.050781 -18.925781 L 15.230469 -18.925781 C 15.957031 -18.925781 16.433594 -18.730469 16.714844 -18.308594 C 17.023438 -17.890625 17.164062 -17.21875 17.164062 -16.292969 C 17.164062 -15.371094 17.023438 -14.699219 16.714844 -14.277344 C 16.433594 -13.859375 15.957031 -13.664062 15.230469 -13.664062 L 3.050781 -13.664062 C 2.800781 -13.664062 2.238281 -13.578125 2.238281 -12.710938 L 2.238281 -0.953125 C 2.238281 -0.0859375 2.800781 0.0273438 3.050781 0.0273438 L 5.597656 0.0273438 C 5.851562 0.0273438 6.382812 -0.0859375 6.382812 -0.953125 L 6.382812 -9.519531 L 12.289062 -9.519531 L 17.359375 -0.53125 C 17.46875 -0.363281 17.554688 -0.222656 17.667969 -0.140625 C 17.804688 -0.0273438 18.003906 0.0273438 18.253906 0.0273438 L 21.335938 0.0273438 C 21.671875 0.0273438 21.921875 -0.195312 21.976562 -0.53125 C 22.007812 -0.8125 21.976562 -1.035156 21.867188 -1.203125 Z M 21.867188 -1.203125 "/></g></g></g><g fill="#d34040" fill-opacity="1"><g transform="translate(264.769107, 258.958723)"><g><path d="M 5.597656 -23.070312 L 3.023438 -23.070312 C 2.800781 -23.070312 2.238281 -22.957031 2.238281 -22.089844 L 2.238281 -0.953125 C 2.238281 -0.0859375 2.800781 0.0273438 3.023438 0.0273438 L 5.597656 0.0273438 C 5.824219 0.0273438 6.382812 -0.0859375 6.382812 -0.953125 L 6.382812 -22.089844 C 6.382812 -22.957031 5.824219 -23.070312 5.597656 -23.070312 Z M 5.597656 -23.070312 "/></g></g></g><g fill="#d34040" fill-opacity="1"><g transform="translate(276.471743, 258.958723)"><g><path d="M 17.246094 -20.464844 C 17.191406 -20.605469 17.132812 -20.773438 17.078125 -20.886719 C 16.628906 -22.34375 15.285156 -23.378906 13.746094 -23.378906 C 13.046875 -23.378906 12.375 -23.183594 11.816406 -22.789062 C 11.648438 -22.707031 11.507812 -22.59375 11.394531 -22.511719 C 10.976562 -22.144531 10.554688 -21.472656 10.164062 -20.464844 L 2.351562 -1.0625 C 2.269531 -0.8125 2.238281 -0.558594 2.296875 -0.390625 C 2.324219 -0.222656 2.464844 0.0273438 2.910156 0.0273438 L 5.992188 0.0273438 C 6.355469 0.0273438 6.636719 -0.195312 6.777344 -0.558594 L 8.371094 -4.5625 L 14.503906 -4.5625 C 14.8125 -4.5625 15.089844 -4.703125 15.230469 -4.957031 C 15.398438 -5.179688 15.425781 -5.488281 15.34375 -5.765625 L 14.335938 -8.257812 C 14.195312 -8.59375 13.886719 -8.820312 13.523438 -8.820312 L 10.050781 -8.820312 L 13.636719 -17.890625 C 13.664062 -17.945312 13.691406 -17.972656 13.691406 -17.972656 L 13.804688 -17.972656 C 13.804688 -17.972656 13.804688 -17.972656 13.832031 -17.917969 L 20.773438 -0.589844 C 20.914062 -0.195312 21.195312 0.0273438 21.585938 0.0273438 L 24.582031 0.0273438 C 25.03125 0.0273438 25.140625 -0.253906 25.199219 -0.390625 C 25.253906 -0.558594 25.226562 -0.8125 25.113281 -1.0625 Z M 17.246094 -20.464844 "/></g></g></g></svg>